<svg xmlns="http://www.w3.org/2000/svg" viewBox="0 0 600 200" role="img" aria-label="attesta logo">
  <defs>
    <linearGradient id="atG" x1="0" y1="0" x2="0.18" y2="1">
      <stop offset="0" stop-color="#54c794"></stop>
      <stop offset="0.5" stop-color="#1f6e56"></stop>
      <stop offset="1" stop-color="#0b3829"></stop>
    </linearGradient>
  </defs>
  <g transform="translate(0,20) scale(0.8)">
    <path d="M100,16 L174,165 L163,188 L37,188 L26,165 Z M100,86 L134,152 L66,152 Z" fill="url(#atG)" fill-rule="evenodd"></path>
    <polygon points="100,16 100,86 66,152 48,188 37,188 26,165" fill="#86ddb8" opacity="0.62"></polygon>
    <polygon points="100,16 124,64 76,64" fill="#9be8c7" opacity="0.55"></polygon>
  </g>
  <rect x="185.6" y="36.0" width="2.32" height="128.0" rx="1" fill="#4D4C4D"></rect>
  <path d="M235.63 139.05Q230.46 139.05 226.11 137.29Q221.77 135.53 219.35 132.07Q216.93 128.6 216.93 123.32Q216.93 117.82 219.4 114.63Q221.88 111.44 226.23 109.73Q230.57 108.03 235.63 107.48L251.25 105.72Q250.26 102.42 247.62 101.04Q244.98 99.67 241.79 99.67Q238.6 99.67 234.8 100.82Q231.01 101.98 226.06 104.4L220.67 91.97Q226.06 88.34 231.83 86.74Q237.61 85.15 243.11 85.15Q255.87 85.15 262.64 90.32Q269.4 95.49 269.4 106.49L269.4 137.95L252.46 137.95L252.46 133Q249.16 136.3 245.36 137.67Q241.57 139.05 235.63 139.05ZM241.68 125.74Q244.65 125.74 246.85 124.64Q249.05 123.54 250.32 121.67Q251.58 119.8 251.58 117.6L251.58 116.39L241.57 117.6Q238.38 118.15 236.68 119.31Q234.97 120.46 234.97 122.11Q234.97 123.98 236.62 124.86Q238.27 125.74 241.68 125.74Z M300.48 138.61Q290.03 138.61 285.63 134.21Q281.23 129.81 281.23 120.79L281.23 100.66L271.22 100.66L271.22 86.25L281.23 86.25L281.23 71.51L299.05 71.51L299.05 86.25L311.15 86.25L311.15 100.66L299.05 100.66L299.05 119.03Q299.05 121.45 300.37 122.82Q301.69 124.2 304.66 124.2Q306.09 124.2 308.01 124.09Q309.94 123.98 311.15 123.76L311.15 137.4Q309.28 137.84 306.36 138.23Q303.45 138.61 300.48 138.61Z M344.86 138.61Q334.41 138.61 330.01 134.21Q325.61 129.81 325.61 120.79L325.61 100.66L315.6 100.66L315.6 86.25L325.61 86.25L325.61 71.51L343.43 71.51L343.43 86.25L355.53 86.25L355.53 100.66L343.43 100.66L343.43 119.03Q343.43 121.45 344.75 122.82Q346.07 124.2 349.04 124.2Q350.47 124.2 352.4 124.09Q354.32 123.98 355.53 123.76L355.53 137.4Q353.66 137.84 350.75 138.23Q347.83 138.61 344.86 138.61Z M391.33 139.05Q383.19 139.05 376.32 136.14Q369.44 133.22 365.43 127.23Q361.41 121.23 361.41 112.1Q361.41 103.85 365.1 97.8Q368.78 91.75 375.11 88.45Q381.43 85.15 389.35 85.15Q397.27 85.15 403.27 88.07Q409.26 90.98 412.73 95.98Q416.19 100.99 416.19 107.7Q416.19 109.79 415.64 112.32Q415.09 114.85 414.32 116.61L379.45 116.61Q380 119.25 381.76 121.12Q383.52 122.99 386.44 123.92Q389.35 124.86 393.31 124.86Q397.49 124.86 401.51 123.54Q405.52 122.22 408.93 120.35L413.99 132.34Q409.04 135.64 403.32 137.35Q397.6 139.05 391.33 139.05ZM379.45 105.61L397.93 105.61Q398.04 105.28 398.1 105.01Q398.15 104.73 398.15 104.51Q398.15 102.64 397.27 101.37Q396.39 100.11 394.47 99.29Q392.54 98.46 389.79 98.46Q387.04 98.46 384.84 99.39Q382.64 100.33 381.27 101.92Q379.89 103.52 379.45 105.61Z M444.35 139.05Q438.19 139.05 432.47 137.45Q426.75 135.86 421.69 132.45L427.52 120.02Q432.8 123.32 437.2 124.75Q441.6 126.18 444.57 126.18Q447.43 126.18 449.08 125.35Q450.73 124.53 450.73 122.88Q450.73 121.56 449.52 120.79Q448.31 120.02 445.45 119.47L439.73 118.48Q431.48 116.94 427.41 113.26Q423.34 109.57 423.34 103.63Q423.34 98.46 425.65 94.28Q427.96 90.1 433.02 87.62Q438.08 85.15 446.11 85.15Q451.72 85.15 457 86.58Q462.28 88.01 467.12 90.87L461.62 102.53Q458.1 100.88 454.09 99.45Q450.07 98.02 446.99 98.02Q444.24 98.02 442.81 98.79Q441.38 99.56 441.38 100.99Q441.38 101.98 442.32 102.58Q443.25 103.19 446.11 103.85L451.83 104.84Q460.19 106.38 464.48 110.34Q468.77 114.3 468.77 120.57Q468.77 128.6 462.67 133.82Q456.56 139.05 444.35 139.05Z M502.1 138.61Q491.65 138.61 487.25 134.21Q482.85 129.81 482.85 120.79L482.85 100.66L472.84 100.66L472.84 86.25L482.85 86.25L482.85 71.51L500.67 71.51L500.67 86.25L512.77 86.25L512.77 100.66L500.67 100.66L500.67 119.03Q500.67 121.45 501.99 122.82Q503.31 124.2 506.28 124.2Q507.71 124.2 509.64 124.09Q511.56 123.98 512.77 123.76L512.77 137.4Q510.9 137.84 507.99 138.23Q505.07 138.61 502.1 138.61Z M537.35 139.05Q532.18 139.05 527.84 137.29Q523.49 135.53 521.07 132.07Q518.65 128.6 518.65 123.32Q518.65 117.82 521.13 114.63Q523.6 111.44 527.95 109.73Q532.29 108.03 537.35 107.48L552.97 105.72Q551.98 102.42 549.34 101.04Q546.7 99.67 543.51 99.67Q540.32 99.67 536.53 100.82Q532.73 101.98 527.78 104.4L522.39 91.97Q527.78 88.34 533.56 86.74Q539.33 85.15 544.83 85.15Q557.59 85.15 564.36 90.32Q571.12 95.49 571.12 106.49L571.12 137.95L554.18 137.95L554.18 133Q550.88 136.3 547.09 137.67Q543.29 139.05 537.35 139.05ZM543.4 125.74Q546.37 125.74 548.57 124.64Q550.77 123.54 552.04 121.67Q553.3 119.8 553.3 117.6L553.3 116.39L543.29 117.6Q540.1 118.15 538.4 119.31Q536.69 120.46 536.69 122.11Q536.69 123.98 538.34 124.86Q539.99 125.74 543.4 125.74Z" fill="#4D4C4D"></path>
</svg>