<svg preserveAspectRatio="xMidYMid meet" width="24" height="24" viewBox="-1.801120 -1.654720 19.856640 19.856640" fill="none" xmlns="http://www.w3.org/2000/svg">
<path id="Vector" fill-rule="evenodd" clip-rule="evenodd" d="M6.00707 11.7915V12.0521L6.28975 12.3127H7.70318L7.77385 12.2476V11.8567L7.84452 11.7915V11.5961L7.77385 11.5309H6.28975L6.00707 11.7915ZM5.22968 11.1401L5.08834 10.9446H5.01767L4.947 10.8795H4.73498L4.02827 11.5309V11.5961L3.60424 11.987H3.53357L3.10954 11.5961H2.68551L2.54417 11.7264V11.7915L2.4735 11.8567V11.987L2.54417 12.0521V12.1173L2.82686 12.3779H2.89753L3.4629 12.899H3.74558L3.9576 12.7036V12.6384L4.87633 11.7915V11.7264L5.22968 11.4007V11.1401ZM9.75265 9.96743L9.25795 10.4235V10.4886L9.04594 10.684V10.7492L8.97527 10.8143V10.8795L8.83392 11.0098V11.0749L8.76325 11.1401V11.2704L8.69258 11.3355V11.4658L8.62191 11.5309V11.6612L8.55124 11.7264V12.0521L8.48057 12.1173V12.5733L8.55124 12.6384V13.0293L8.62191 13.0945V13.2248L8.69258 13.2899V13.4202L8.76325 13.4853V13.6156L8.83392 13.6808V13.7459L8.90459 13.8111V13.8762L9.04594 14.0065V14.0717L9.18728 14.202V14.2671L9.61131 14.658H9.68198L9.89399 14.8534H9.96466L10.106 14.9837H10.1767L10.3887 15.114H10.53L10.742 15.2443H10.9541L11.0247 15.3094H11.4488L11.5194 15.3746H11.9435L12.0141 15.3094H12.4382L12.5088 15.2443H12.6502L12.7208 15.1792H12.8622L12.9329 15.114H13.0035L13.0742 15.0489H13.1449L13.2155 14.9837H13.2862L13.3569 14.9186H13.4276L13.4982 14.8534H13.5689L15.4064 16.5472H15.6184L16.2544 15.9609V15.7003L14.417 14.0065L14.4876 13.9414V13.8762L14.5583 13.8111V13.7459L14.6996 13.5505V13.4202L14.7703 13.355V13.2248L14.841 13.1596V12.899L14.9117 12.8339V11.9218L14.841 11.8567V11.5961L14.7703 11.5309V11.4007L14.629 11.2052V11.0749L14.5583 11.0098V10.9446L14.417 10.8143V10.7492L14.2756 10.6189V10.5537L13.5689 9.90228H13.4982L13.4276 9.83713H13.3569L13.2155 9.70684H13.1449L12.9329 9.57655H12.7915L12.5795 9.44625H12.2968L12.2261 9.38111H11.1661L11.0954 9.44625H10.8834L10.8127 9.5114H10.6714L10.6007 9.57655H10.53L10.4594 9.64169H10.3887L10.318 9.70684H10.2474L10.1767 9.77199H10.106L10.0353 9.83713H9.96466L9.82332 9.96743H9.75265ZM11.2367 10.3583H12.1555L12.2261 10.4235H12.3675L12.4382 10.4886H12.5088L12.5795 10.5537H12.6502L12.7208 10.6189H12.7915L12.8622 10.684H12.9329L13.4982 11.2052V11.2704L13.5689 11.3355V11.4007L13.6396 11.4658V11.5309L13.7809 11.7264V11.9218L13.8516 11.987V12.7687L13.7809 12.8339V12.9642L13.7102 13.0293V13.1596L13.6396 13.2248V13.2899L13.4982 13.4202V13.4853L12.8622 14.0717H12.7915L12.5795 14.202H12.4382L12.3675 14.2671H12.2261L12.1555 14.3322H11.2367L11.1661 14.2671H11.0247L10.9541 14.202H10.8127L10.742 14.1368H10.6714L10.53 14.0065H10.4594L9.89399 13.4853V13.4202L9.82332 13.355V13.2899L9.68198 13.0945V12.9642L9.61131 12.899V12.6384L9.54064 12.5733V12.1173L9.61131 12.0521V11.8567L9.68198 11.7915V11.6612L9.75265 11.5961V11.5309L9.82332 11.4658V11.4007L9.89399 11.3355V11.2704L10.106 11.0749V11.0098L10.318 10.8143H10.3887L10.6007 10.6189H10.6714L10.742 10.5537H10.8127L11.0247 10.4235H11.1661L11.2367 10.3583ZM6.00707 9.05537L6.07774 9.12052V9.18567L6.28975 9.38111H9.32862L9.46996 9.25081H9.54064L9.61131 9.18567H9.68198L9.75265 9.12052H9.82332L9.89399 9.05537H9.96466L10.106 8.92508V8.85993L10.0353 8.79479V8.72964L9.82332 8.59935H6.28975L6.07774 8.72964V8.79479L6.00707 8.85993V9.05537ZM5.22968 8.14332L5.01767 7.94788H4.73498L4.66431 8.01303H4.59364L4.24028 8.33876V8.40391L3.67491 8.92508V8.99023L3.60424 9.05537H3.53357L3.03887 8.59935H2.75618L2.4735 8.85993V9.05537L3.39223 9.90228H3.4629L3.53357 9.96743H3.60424L3.67491 9.90228H3.74558L4.38163 9.31596V9.25081L5.22968 8.46906V8.14332ZM6.00707 5.92834V6.18893L6.21908 6.38436H9.89399L10.0353 6.25407V6.18893L10.106 6.12378V5.92834L10.0353 5.86319V5.79805L9.89399 5.66775H6.21908L6.07774 5.79805V5.86319L6.00707 5.92834ZM5.22968 5.21173L5.08834 5.01629H5.01767L4.947 4.95114H4.80565L4.73498 5.01629H4.66431L4.16961 5.47231V5.53746L3.60424 6.05863H3.53357L3.18021 5.7329H3.10954L3.03887 5.66775H2.75618L2.68551 5.7329H2.61484V5.79805L2.4735 5.92834V6.12378L3.39223 6.97068H3.74558L4.24028 6.51466V6.44951L5.01767 5.7329V5.66775L5.22968 5.47231V5.21173ZM10.1767 1.75896V3.06189H11.0954L11.2367 3.19218V7.62215L11.1661 7.6873V7.94788L11.2367 8.01303V8.14332L11.1661 8.20847V8.59935L11.2367 8.6645H12.2261L12.2968 8.72964H12.6502V2.34528L12.5795 2.28013V2.14984L12.4382 2.01954V1.9544H12.3675L12.2261 1.8241H12.1555L12.0848 1.75896H10.1767ZM0.282686 1.88925L0.0706714 2.08469V2.14984L0 2.21498V15.5049L0.0706714 15.57V15.6352L0.141343 15.7003V15.7655L0.212014 15.8306H0.282686L0.424028 15.9609H0.565371L0.636042 16.0261H11.0247V15.9609H10.8834L10.8127 15.8958H10.53L10.4594 15.8306H10.318L10.2474 15.7655H10.106L10.0353 15.7003H9.96466L9.89399 15.6352H9.82332L9.68198 15.5049H9.61131L9.54064 15.4397H9.46996L9.25795 15.2443H9.18728L8.69258 14.7883V14.7231L8.62191 14.658H1.4841L1.41343 14.5928V3.12704L1.4841 3.06189H2.4735V1.8241L2.40283 1.75896H0.565371L0.4947 1.8241H0.424028L0.353357 1.88925H0.282686ZM3.18021 1.43322V2.9316L3.25088 2.99674V3.06189L3.4629 3.19218H9.18728L9.39929 2.99674V2.14984L9.46996 2.08469V1.56352L9.39929 1.49837V1.36808L9.25795 1.23779H9.18728L9.11661 1.17264H8.05654L7.98587 1.10749V0.586319L7.91519 0.521173V0.456026L7.84452 0.390879V0.325733L7.56184 0.0651466H7.49117L7.42049 0H5.15901L5.08834 0.0651466H5.01767L4.73498 0.325733V0.456026L4.66431 0.521173V1.10749L4.59364 1.17264H3.4629L3.39223 1.23779H3.32155L3.18021 1.43322Z" fill="#1CC195"/>
</svg>
