<svg preserveAspectRatio="none" overflow="visible" style="display: block;" width="16.5359" height="16.6349" viewBox="0 0 16.5359 16.6349" fill="none" xmlns="http://www.w3.org/2000/svg">
<path id="Vector" fill-rule="evenodd" clip-rule="evenodd" d="M16.4052 12.5714H16.2092L16.1438 12.6349H16.0784L16.0131 12.6984H15.9477L15.8824 12.7619H15.817L15.7516 12.8254H15.6863L15.5556 12.9524H15.4902L15.4248 13.0159H15.3595L15.2941 13.0794H15.2288L15.1634 13.1429H15.098L15.0327 13.2063H14.9673L14.7712 13.3333V13.4603L15.3595 14.0317V14.2222L15.2941 14.2857V14.4127L15.2288 14.4762V14.5397L15.098 14.6667V14.7302L14.9673 14.8571V14.9206L14.7712 15.1111H14.7059L14.5098 15.3016H14.4444L14.3791 15.3651H14.3137L14.1176 15.4921H13.9869L13.9216 15.5556H13.0065L12.9412 15.4921H12.7451L12.6797 15.4286H12.6144L12.549 15.3651H12.4837L12.3529 15.2381H12.2876L11.9608 14.9206V14.8571L11.8954 14.7936V14.7302L11.9608 14.6667H12.0261L12.0915 14.6032H12.1569L12.2876 14.4762H12.3529L12.4183 14.4127V14.3492H12.3529L12.2222 14.2222H12.1569L12.0915 14.1587H12.0261L11.9608 14.0952H11.8954L11.6993 13.9683H11.5686L11.5033 13.9048H11.4379L11.3725 13.8413H11.3072L11.2418 13.7778H11.1765L11.1111 13.7143H11.0458L10.9804 13.6508H10.915L10.719 13.5238H10.5882V13.7143L10.5229 13.7778V14.0317L10.4575 14.0952V14.4127L10.3922 14.4762V14.6667L10.3268 14.7302V15.0476L10.2614 15.1111V15.3651L10.1961 15.4286V15.5556H10.3268L10.3922 15.4921H10.4575L10.5882 15.3651H10.719L10.7843 15.3016H10.8497L11.1111 15.5556V15.619L11.5686 16.0635H11.634L11.7647 16.1905H11.8301L11.8954 16.254H11.9608L12.0915 16.381H12.2222L12.2876 16.4444H12.3529L12.549 16.5714H12.7451L12.8105 16.6349H14.0523L14.1176 16.5714H14.2484L14.3137 16.5079H14.5098L14.5752 16.4444H14.6405L14.7059 16.381H14.7712L14.8366 16.3175H14.902L14.9673 16.254H15.0327L15.1634 16.127H15.2288L15.4902 15.873H15.5556L15.6863 15.746V15.6825L15.9477 15.4286V15.3651L16.0784 15.2381V15.1746L16.1438 15.1111V15.0476L16.2092 14.9841V14.9206L16.3399 14.7302V14.6032L16.4052 14.5397V14.4127L16.4706 14.3492V14.0952L16.5359 14.0317V13.2063L16.4706 13.1429V12.8254L16.4052 12.7619V12.5714ZM15.817 11.3651L15.7516 11.3016H15.6863L15.2288 10.8571H15.1634L15.0327 10.7302H14.9673L14.902 10.6667H14.8366L14.7712 10.6032H14.7059L14.5098 10.4762H14.3791L14.3137 10.4127H14.183L14.1176 10.3492H14.0523L13.5948 9.90476H13.4641L13.3987 9.96825V10.0952L13.268 10.2857H13.2026L13.1373 10.3492H12.8105L12.7451 10.4127H12.6144L12.549 10.4762H12.4183L12.3529 10.5397H12.2222L12.1569 10.6032H12.0915L12.0261 10.6667H11.9608L11.8954 10.7302H11.8301L11.6993 10.8571H11.634L10.915 11.5556V11.619L10.7843 11.746V11.8095L10.719 11.873V11.9365L10.6536 12V12.0635L10.5229 12.254V12.381L10.4575 12.4444V12.6349H10.8497L10.915 12.5714H11.0458L11.2418 12.4444H11.3725L11.5686 12.3175H11.6993L12.2876 11.746H12.3529L12.4837 11.619H12.549L12.7451 11.4921H12.8758L12.9412 11.4286H13.8562L13.9216 11.4921V11.619L13.9869 11.6825V11.8095L14.0523 11.873V12L14.1176 12.0635V12.127L14.183 12.1905V12.254H14.3137L14.3791 12.1905H14.4444L14.5098 12.127H14.5752L14.6405 12.0635H14.7059L14.8366 11.9365H14.902L14.9673 11.873H15.0327L15.1634 11.746H15.2288L15.2941 11.6825H15.3595L15.4902 11.5556H15.5556L15.6209 11.4921H15.6863L15.7516 11.4286H15.817V11.3651ZM15.3595 7.68254L15.2941 7.61905H11.8954L11.7647 7.74603V7.80952L11.3725 8.19048V8.25397L11.1111 8.50794V8.57143L10.7843 8.88889V8.95238L10.3922 9.33333V9.39682L10.1307 9.65079V9.71429L9.80392 10.0317V10.0952L9.41177 10.4762V10.5397L9.15033 10.7937V10.8571L8.88889 11.1111V11.1746L8.49673 11.5556V11.619L8.16994 11.9365V12L7.84314 12.3175V12.381L7.64706 12.5714V12.6349L7.2549 13.0159V13.0794L6.99346 13.3333V13.3968L6.66667 13.7143V13.7778L6.33987 14.0952V14.1587L6.01307 14.4762V14.5397L5.68627 14.8571V14.9206L5.42484 15.1746V15.2381L5.03268 15.619V15.6825L4.77124 15.9365V16L4.44444 16.3175V16.381L4.37909 16.4444V16.5714H4.70588L4.77124 16.5079H5.62092L5.88235 16.254V16.1905L6.20915 15.873V15.8095L6.47059 15.5556V15.4921L6.79739 15.1746V15.1111L7.12418 14.7936V14.7302L7.45098 14.4127V14.3492L7.77778 14.0317V13.9683L8.10458 13.6508V13.5873L8.43137 13.2698V13.2063L8.75817 12.8889V12.8254L9.08497 12.5079V12.4444L9.41177 12.127V12.0635L9.6732 11.8095V11.746L10 11.4286V11.3651L10.3268 11.0476V10.9841L10.6536 10.6667V10.6032L10.9804 10.2857V10.2222L11.3072 9.90476V9.84127L11.634 9.52381V9.46032L11.9608 9.14286V9.07936L12.4183 8.63492H15.3595V7.68254ZM4.70588 2.34921H4.64052L4.44444 2.22222H4.31373L4.24837 2.15873H3.52941L3.33333 2.28571H3.20261L3.0719 2.4127H3.00654L2.67974 2.73016V2.79365L2.54902 2.92063V3.04762L2.48366 3.11111V3.2381L2.4183 3.30159V3.93651L2.48366 4V4.12698L2.54902 4.19048V4.25397L2.61438 4.31746V4.38095L2.81046 4.57143V4.63492H2.87582L3.0719 4.8254H3.13726L3.20261 4.88889H3.26797L3.46405 5.01587V7.68254L3.33333 7.80952V7.87302L3.20261 8H0.0653595L0 8.06349V8.95238L0.0653595 9.01587H3.66013L3.98693 8.69841V8.63492L4.5098 8.12698V4.95238L4.57516 4.88889H4.64052L4.77124 4.7619H4.8366L5.03268 4.57143V4.50794L5.1634 4.38095V4.31746L5.29412 4.12698V4L5.35948 3.93651V3.2381L5.29412 3.1746V3.04762L5.22876 2.98413V2.92063L5.09804 2.79365V2.73016L4.70588 2.34921ZM3.72549 2.98413H4.05229L4.11765 3.04762H4.18301L4.44444 3.30159V3.36508L4.5098 3.42857V3.74603L4.44444 3.80952V3.93651L4.24837 4.12698H4.18301L4.11765 4.19048H3.98693L3.92157 4.25397H3.85621L3.79085 4.19048H3.66013L3.59477 4.12698H3.52941L3.39869 4V3.93651L3.26797 3.74603V3.49206L3.33333 3.42857V3.30159L3.59477 3.04762H3.66013L3.72549 2.98413ZM9.60784 0.126984H9.47712L9.41177 0.0634921H9.21569L9.15033 0H8.75817L8.69281 0.0634921H8.49673L8.43137 0.126984H8.36601L8.30065 0.190476H8.23529L8.16994 0.253968H8.10458L7.64706 0.698413V0.761905L7.5817 0.825397V0.888889L7.45098 1.07937V1.20635L7.38562 1.26984V1.96825L7.45098 2.03175V2.22222L7.51634 2.28571V2.34921L7.5817 2.4127V2.47619L7.71242 2.60317V2.66667L7.84314 2.79365L7.71242 2.92063V2.98413L7.38562 3.30159V3.36508L7.05882 3.68254V3.74603L6.79739 4V4.06349L6.53595 4.31746V4.38095L6.27451 4.63492V4.69841L5.88235 5.07936V8.50794L5.68627 8.69841V8.7619L5.29412 9.14286V9.20635L4.96732 9.52381V9.5873L4.64052 9.90476V9.96825L4.31373 10.2857V10.3492L4.18301 10.4762H0.0653595L0 10.5397V13.7143L0.196078 13.9048H0.261438L0.457516 14.0952H0.522876L0.784314 14.3492H0.849673L1.11111 14.6032H1.17647L1.37255 14.7936H1.43791L1.69935 15.0476H1.76471L1.96078 15.2381H2.02614L2.28758 15.4921H2.35294L2.54902 15.6825H2.61438L2.87582 15.9365H2.94118L3.13726 16.127H3.20261L3.26797 16.1905H3.39869L3.46405 16.127V16.0635L3.79085 15.746V15.6825L4.05229 15.4286V15.3651L4.37909 15.0476V14.9841L4.70588 14.6667V14.6032L5.03268 14.2857V14.2222L5.35948 13.9048V13.8413L5.62092 13.5873V13.5238L5.88235 13.2698V13.2063L6.14379 12.9524V12.8889L6.47059 12.5714V12.5079L6.79739 12.1905V12.127L7.12418 11.8095V11.746L7.45098 11.4286V11.3651L7.77778 11.0476V10.9841L8.10458 10.6667V10.6032L8.43137 10.2857V10.2222L8.95425 9.71429V9.65079L9.08497 9.52381V6.47619L9.34641 6.22222V6.15873L9.6732 5.84127V5.77778L10.0654 5.39683H10.9804L11.1765 5.5873V5.65079L11.2418 5.71429H11.3072L11.4379 5.84127H11.5033L11.634 5.96825H11.7647L11.8301 6.03175H12.0261L12.0915 6.09524H12.549L12.6144 6.03175H12.8105L12.8758 5.96825H13.0065L13.0719 5.90476H13.1373L13.268 5.77778H13.3333L13.5948 5.52381V5.46032L13.7255 5.33333V5.26984L13.7909 5.20635V5.14286L13.9216 4.95238V4.69841L13.9869 4.63492V4.31746L13.9216 4.25397V4L13.8562 3.93651V3.87302L13.7909 3.80952V3.74603L13.7255 3.68254V3.61905L13.2026 3.11111H13.1373L12.9412 2.98413H12.8105L12.7451 2.92063H11.9608L11.8954 2.98413H11.7647L11.6993 3.04762H11.634L11.5686 3.11111H11.5033L11.4379 3.1746H11.3725L11.0458 3.49206V3.55556L10.915 3.68254V3.74603L10.8497 3.80952V3.93651L10.7843 4V4.12698L10.719 4.19048V4.31746L10.6536 4.38095H9.54248L9.28105 4.63492V4.69841L9.01961 4.95238V5.01587L8.69281 5.33333V5.39683L8.43137 5.65079V5.71429L8.10458 6.03175V6.09524L8.03922 6.15873V6.66667L8.10458 6.73016V7.36508L8.03922 7.42857V9.01587L8.10458 9.07936V9.14286L7.64706 9.5873V9.65079L7.32026 9.96825V10.0317L6.9281 10.4127V10.4762L6.60131 10.7937V10.8571L6.20915 11.2381V11.3016L5.94771 11.5556V11.619L5.55556 12V12.0635L5.29412 12.3175V12.381L5.03268 12.6349V12.6984L4.64052 13.0794V13.1429L4.37909 13.3968V13.4603L4.05229 13.7778V13.8413L3.79085 14.0952V14.1587L3.46405 14.4762V14.5397L3.26797 14.7302H3.20261L3.13726 14.7936H3.0719L2.48366 14.2222V14.1587L2.35294 14.0317V13.9683L1.30719 12.9524H1.24183L1.04575 12.7619V11.5556L1.11111 11.4921H4.64052L4.90196 11.2381V11.1746L5.22876 10.8571V10.7937L5.55556 10.4762V10.4127L5.88235 10.0952V10.0317L6.20915 9.71429V9.65079L6.60131 9.26984V9.20635L6.86275 8.95238V5.52381L7.05882 5.33333V5.26984L7.32026 5.01587V4.95238L7.64706 4.63492V4.57143L7.9085 4.31746V4.25397L8.16994 4V3.93651L8.43137 3.68254V3.61905L8.82353 3.2381H9.21569L9.28105 3.1746H9.47712L9.54248 3.11111H9.60784L9.6732 3.04762H9.73856L9.86928 2.92063H9.93464L10.3268 2.53968V2.47619L10.3922 2.4127V2.34921L10.5229 2.15873V2.03175L10.5882 1.96825V1.26984L10.5229 1.20635V1.07937L10.4575 1.01587V0.888889L10.3268 0.761905V0.698413L9.93464 0.31746H9.86928L9.73856 0.190476H9.6732L9.60784 0.126984ZM12.2222 3.80952H12.4183L12.4837 3.87302H12.6144L12.6797 3.93651H12.7451L12.9412 4.12698V4.25397L13.0065 4.31746V4.69841L12.9412 4.7619V4.8254L12.6797 5.07936H12.6144L12.549 5.14286H12.1569L12.0915 5.07936H12.0261L11.9608 5.01587H11.8954L11.7647 4.88889V4.8254L11.6993 4.7619V4.63492L11.634 4.57143V4.44444L11.6993 4.38095V4.19048L12.0261 3.87302H12.1569L12.2222 3.80952ZM8.62745 1.01587H8.75817L8.82353 0.952381H9.15033L9.21569 1.01587H9.28105L9.60784 1.33333V1.46032L9.6732 1.52381V1.71429L9.60784 1.77778V1.90476L9.54248 1.96825V2.03175L9.34641 2.22222H9.28105L9.21569 2.28571H8.75817L8.69281 2.22222H8.62745L8.36601 1.96825V1.90476L8.30065 1.84127V1.39683L8.36601 1.33333V1.26984L8.62745 1.01587Z" fill="#1CC195"/>
</svg>
